<?xml version="1.0" encoding="UTF-8" standalone="no"?>
<svg
   xmlns:dc="http://purl.org/dc/elements/1.1/"
   xmlns:cc="http://creativecommons.org/ns#"
   xmlns:rdf="http://www.w3.org/1999/02/22-rdf-syntax-ns#"
   xmlns:svg="http://www.w3.org/2000/svg"
   xmlns="http://www.w3.org/2000/svg"
   xmlns:xlink="http://www.w3.org/1999/xlink"
   xmlns:sodipodi="http://sodipodi.sourceforge.net/DTD/sodipodi-0.dtd"
   xmlns:inkscape="http://www.inkscape.org/namespaces/inkscape"
   sodipodi:docname="berri.svg"
   inkscape:version="1.0 (4035a4fb49, 2020-05-01)"
   id="svg2535"
   version="1.1"
   viewBox="0 0 210 210"
   height="210mm"
   width="210mm">
  <defs
     id="defs2529">
    <linearGradient
       inkscape:collect="always"
       xlink:href="#linearGradient2441"
       id="linearGradient2443"
       x1="106.33299"
       y1="158.01027"
       x2="105.86571"
       y2="82.119751"
       gradientUnits="userSpaceOnUse" />
    <linearGradient
       inkscape:collect="always"
       id="linearGradient2441">
      <stop
         style="stop-color:#6799f3;stop-opacity:1;"
         offset="0"
         id="stop2437" />
      <stop
         style="stop-color:#77c4f7;stop-opacity:1"
         offset="1"
         id="stop2439" />
    </linearGradient>
    <linearGradient
       y2="82.119751"
       x2="105.86571"
       y1="158.01027"
       x1="106.33299"
       gradientUnits="userSpaceOnUse"
       id="linearGradient2676"
       xlink:href="#linearGradient2441"
       inkscape:collect="always" />
    <linearGradient
       y2="82.119751"
       x2="105.86571"
       y1="158.01027"
       x1="106.33299"
       gradientUnits="userSpaceOnUse"
       id="linearGradient2678"
       xlink:href="#linearGradient2441"
       inkscape:collect="always" />
    <linearGradient
       y2="82.119751"
       x2="105.86571"
       y1="158.01027"
       x1="106.33299"
       gradientUnits="userSpaceOnUse"
       id="linearGradient2680"
       xlink:href="#linearGradient2441"
       inkscape:collect="always" />
    <linearGradient
       y2="82.119751"
       x2="105.86571"
       y1="158.01027"
       x1="106.33299"
       gradientUnits="userSpaceOnUse"
       id="linearGradient2682"
       xlink:href="#linearGradient2441"
       inkscape:collect="always" />
    <linearGradient
       y2="82.119751"
       x2="105.86571"
       y1="158.01027"
       x1="106.33299"
       gradientUnits="userSpaceOnUse"
       id="linearGradient2684"
       xlink:href="#linearGradient2441"
       inkscape:collect="always" />
    <linearGradient
       y2="82.119751"
       x2="105.86571"
       y1="158.01027"
       x1="106.33299"
       gradientUnits="userSpaceOnUse"
       id="linearGradient2686"
       xlink:href="#linearGradient2441"
       inkscape:collect="always" />
    <linearGradient
       y2="82.119751"
       x2="105.86571"
       y1="158.01027"
       x1="106.33299"
       gradientUnits="userSpaceOnUse"
       id="linearGradient2688"
       xlink:href="#linearGradient2441"
       inkscape:collect="always" />
    <linearGradient
       y2="82.119751"
       x2="105.86571"
       y1="158.01027"
       x1="106.33299"
       gradientUnits="userSpaceOnUse"
       id="linearGradient2690"
       xlink:href="#linearGradient2441"
       inkscape:collect="always" />
  </defs>
  <sodipodi:namedview
     inkscape:window-maximized="0"
     inkscape:window-y="0"
     inkscape:window-x="40"
     inkscape:window-height="743"
     inkscape:window-width="1326"
     showgrid="false"
     inkscape:document-rotation="0"
     inkscape:current-layer="layer1"
     inkscape:document-units="mm"
     inkscape:cy="428.72019"
     inkscape:cx="350"
     inkscape:zoom="0.60938539"
     inkscape:pageshadow="2"
     inkscape:pageopacity="0.0"
     borderopacity="1.0"
     bordercolor="#666666"
     pagecolor="#ffffff"
     id="base" />
  <metadata
     id="metadata2532">
    <rdf:RDF>
      <cc:Work
         rdf:about="">
        <dc:format>image/svg+xml</dc:format>
        <dc:type
           rdf:resource="http://purl.org/dc/dcmitype/StillImage" />
        <dc:title></dc:title>
      </cc:Work>
    </rdf:RDF>
  </metadata>
  <g
     id="layer1"
     inkscape:groupmode="layer"
     inkscape:label="Katman 1">
    <g
       style="stroke:url(#linearGradient2443);stroke-width:5;stroke-miterlimit:10;stroke-dasharray:none;stroke-opacity:1"
       transform="matrix(2.7607611,0,0,2.7607611,-187.18054,-226.83362)"
       id="g1779">
      <path
         id="path672"
         style="fill:none;stroke:url(#linearGradient2676);stroke-width:5;stroke-linecap:round;stroke-linejoin:round;stroke-miterlimit:10;stroke-dasharray:none;stroke-opacity:1"
         d="m 88.202206,102.5646 c 0,-4.883859 1.727553,-9.027234 5.166078,-12.465759 3.438172,-3.438172 7.599186,-5.166078 12.465396,-5.166078 4.86658,0 9.02653,1.727906 12.46611,5.166078 3.43959,3.438525 5.16467,7.5819 5.16467,12.465759" />
      <path
         id="path674"
         style="fill:none;stroke:url(#linearGradient2678);stroke-width:5;stroke-linecap:round;stroke-linejoin:round;stroke-miterlimit:10;stroke-dasharray:none;stroke-opacity:1"
         d="m 88.202206,102.5646 c -4.866569,0 -9.027583,1.7279 -12.465755,5.16607 -3.438173,3.43818 -5.166078,7.5819 -5.166078,12.46576 0,4.86657 1.727905,9.02758 5.166078,12.46575 3.438172,3.43818 7.599186,5.16608 12.465755,5.16608" />
      <path
         id="path704"
         style="fill:none;stroke:url(#linearGradient2680);stroke-width:5;stroke-linecap:round;stroke-linejoin:round;stroke-miterlimit:10;stroke-dasharray:none;stroke-opacity:1"
         d="m 123.46446,137.82826 c 4.86833,0 9.02758,-1.7279 12.46717,-5.16608 3.43958,-3.43817 5.16466,-7.59918 5.16466,-12.46575 0,-4.88386 -1.72508,-9.02758 -5.16466,-12.46576 -3.43959,-3.43817 -7.59884,-5.16607 -12.46717,-5.16607" />
      <path
         id="path706"
         style="fill:none;stroke:url(#linearGradient2682);stroke-width:5;stroke-linecap:round;stroke-linejoin:round;stroke-miterlimit:10;stroke-dasharray:none;stroke-opacity:1"
         d="m 123.46446,102.5646 c 0,4.86621 -1.72508,9.02758 -5.16467,12.46575 -3.38666,3.38526 -7.45842,5.11316 -12.2368,5.16608 h -0.22931" />
      <path
         id="path708"
         style="fill:none;stroke:url(#linearGradient2684);stroke-width:5;stroke-linecap:round;stroke-linejoin:round;stroke-miterlimit:10;stroke-dasharray:none;stroke-opacity:1"
         d="m 105.83404,120.19643 h -0.22931 c -4.77837,0.0529 -8.851191,1.76318 -12.236446,5.16608 -3.438172,3.43817 -5.166078,7.5819 -5.166078,12.46575" />
      <path
         id="path710"
         style="fill:none;stroke:url(#linearGradient2686);stroke-width:5;stroke-linecap:round;stroke-linejoin:round;stroke-miterlimit:10;stroke-dasharray:none;stroke-opacity:1"
         d="m 105.83404,120.19643 v -0.22931 c -0.0529,-4.77802 -1.78082,-8.85084 -5.16608,-12.23645 -3.438525,-3.43817 -7.599537,-5.16607 -12.465754,-5.16607" />
      <path
         id="path712"
         style="fill:none;stroke:url(#linearGradient2688);stroke-width:5;stroke-linecap:round;stroke-linejoin:round;stroke-miterlimit:10;stroke-dasharray:none;stroke-opacity:1"
         d="m 123.46446,137.82826 c -4.8648,0 -9.02758,-1.7279 -12.46434,-5.16608 -3.38561,-3.38525 -5.11352,-7.45807 -5.16644,-12.23645 v -0.2293" />
      <path
         id="path714"
         style="fill:none;stroke:url(#linearGradient2690);stroke-width:5;stroke-linecap:round;stroke-linejoin:round;stroke-miterlimit:10;stroke-dasharray:none;stroke-opacity:1"
         d="m 88.202206,137.82826 c 0,4.86657 1.727553,9.02758 5.166078,12.46576 3.438172,3.43817 7.599186,5.16607 12.465396,5.16607 4.86658,0 9.02653,-1.7279 12.46611,-5.16607 3.43959,-3.43818 5.16467,-7.59919 5.16467,-12.46576" />
    </g>
  </g>
</svg>
