<?xml version="1.0" encoding="UTF-8" standalone="no"?>
<svg
   xmlns:dc="http://purl.org/dc/elements/1.1/"
   xmlns:cc="http://creativecommons.org/ns#"
   xmlns:rdf="http://www.w3.org/1999/02/22-rdf-syntax-ns#"
   xmlns:svg="http://www.w3.org/2000/svg"
   xmlns="http://www.w3.org/2000/svg"
   xmlns:xlink="http://www.w3.org/1999/xlink"
   xmlns:sodipodi="http://sodipodi.sourceforge.net/DTD/sodipodi-0.dtd"
   xmlns:inkscape="http://www.inkscape.org/namespaces/inkscape"
   width="210mm"
   height="210mm"
   viewBox="0 0 210 210"
   version="1.1"
   id="svg592"
   inkscape:version="1.0 (4035a4fb49, 2020-05-01)"
   sodipodi:docname="macaw-mono-mini.svg">
  <defs
     id="defs586">
    <inkscape:path-effect
       message="Kırpma yollara dönüştürdükten sonra düzleştirilmiş bir sonuç yoksa, &lt;b&gt;dolgu ve kontur&lt;/b&gt; iletişim kutusunda dolgu kuralını kullanın."
       hide_clip="false"
       flatten="false"
       inverse="true"
       lpeversion="1"
       is_visible="true"
       id="path-effect932"
       effect="powerclip" />
    <inkscape:path-effect
       effect="powerclip"
       id="path-effect2224"
       is_visible="true"
       lpeversion="1"
       inverse="true"
       flatten="false"
       hide_clip="false"
       message="Kırpma yollara dönüştürdükten sonra düzleştirilmiş bir sonuç yoksa, &lt;b&gt;dolgu ve kontur&lt;/b&gt; iletişim kutusunda dolgu kuralını kullanın." />
    <linearGradient
       inkscape:collect="always"
       id="linearGradient2144">
      <stop
         style="stop-color:#6799f3;stop-opacity:1;"
         offset="0"
         id="stop2140" />
      <stop
         style="stop-color:#78c5f8;stop-opacity:1"
         offset="1"
         id="stop2142" />
    </linearGradient>
    <linearGradient
       inkscape:collect="always"
       xlink:href="#linearGradient2144"
       id="linearGradient2146"
       x1="4029.1809"
       y1="1998.9088"
       x2="3974.6997"
       y2="4267.8208"
       gradientUnits="userSpaceOnUse" />
    <clipPath
       id="clipPath924"
       clipPathUnits="userSpaceOnUse">
      <g
         transform="translate(-1.9412085e-5,5.0916947e-5)"
         style="display:none;fill:#280b0b"
         id="g930">
        <path
           id="path926"
           style="display:block;fill:#280b0b;stroke:none;stroke-width:13.9004;stroke-linecap:round;stroke-linejoin:round;stroke-miterlimit:10;stroke-dasharray:none;stroke-opacity:1"
           d="m 3823.841,3333.22 c 11.8201,-52.8148 37.5321,-99.3859 77.8455,-140.3945 56.9864,-58.377 125.7931,-87.5656 206.4196,-87.5656 80.6127,0 149.4191,29.1886 206.4195,87.5656 40.3134,41.0086 66.721,87.5797 78.541,140.3945 4.8668,-22.2357 6.9527,-45.1666 6.9527,-69.5019 0,-82.0035 -28.5069,-152.2005 -85.4937,-209.8962 -57.0004,-58.377 -125.8068,-87.5656 -206.4195,-87.5656 -80.6265,0 -149.4332,29.1886 -206.4196,87.5656 -56.9866,57.6957 -85.4937,127.8927 -85.4937,209.8962 0,24.3353 2.7814,47.2662 7.6482,69.5019 z" />
        <path
           d="m 4554.49,3333.22 c -46.49,-166.43 -29.99,-309.37 49.47,-428.33 86.97,-130.44 174.94,-162.93 263.9,-96.46 89.46,66.48 175.43,49.98 258.9,-50.48 1.5,200.92 -22.99,365.36 -73.47,493.31 -50.48,127.94 -123.45,167.93 -219.41,120.45 -96.47,-47.48 -184.43,-43.98 -263.9,11.49 -5.5,-16.99 -11,-33.49 -15.49,-49.98 z"
           style="fill:#280b0b;fill-opacity:1;stroke:none;stroke-width:76.3753;stroke-linecap:round;stroke-linejoin:round;stroke-miterlimit:10;stroke-dasharray:none;stroke-opacity:1"
           id="path928" />
      </g>
      <path
         d="M 2859.16,1996.6275 H 4814.2743 V 4289.0336 H 2859.16 Z M 3823.841,3333.22 c 11.8201,-52.8148 37.5321,-99.3859 77.8455,-140.3945 56.9864,-58.377 125.7931,-87.5656 206.4196,-87.5656 80.6127,0 149.4191,29.1886 206.4195,87.5656 40.3134,41.0086 66.721,87.5797 78.541,140.3945 4.8668,-22.2357 6.9527,-45.1666 6.9527,-69.5019 0,-82.0035 -28.5069,-152.2005 -85.4937,-209.8962 -57.0004,-58.377 -125.8068,-87.5656 -206.4195,-87.5656 -80.6265,0 -149.4332,29.1886 -206.4196,87.5656 -56.9866,57.6957 -85.4937,127.8927 -85.4937,209.8962 0,24.3353 2.7814,47.2662 7.6482,69.5019 z m 730.649,0 c 4.49,16.49 9.99,32.99 15.49,49.98 79.47,-55.47 167.43,-58.97 263.9,-11.49 95.96,47.48 168.93,7.49 219.41,-120.45 50.48,-127.95 74.97,-292.39 73.47,-493.31 -83.47,100.46 -169.44,116.96 -258.9,50.48 -88.96,-66.47 -176.93,-33.98 -263.9,96.46 -79.46,118.96 -95.96,261.9 -49.47,428.33 z"
         class="powerclip"
         style="fill:#280b0b"
         id="lpe_path-effect932" />
    </clipPath>
  </defs>
  <sodipodi:namedview
     id="base"
     pagecolor="#4c4c4c"
     bordercolor="#666666"
     borderopacity="1.0"
     inkscape:pageopacity="1"
     inkscape:pageshadow="2"
     inkscape:zoom="0.055048947"
     inkscape:cx="535.73903"
     inkscape:cy="422.67882"
     inkscape:document-units="mm"
     inkscape:current-layer="g2230"
     inkscape:document-rotation="0"
     showgrid="false"
     inkscape:pagecheckerboard="true"
     inkscape:window-width="1366"
     inkscape:window-height="692"
     inkscape:window-x="0"
     inkscape:window-y="24"
     inkscape:window-maximized="0" />
  <metadata
     id="metadata589">
    <rdf:RDF>
      <cc:Work
         rdf:about="">
        <dc:format>image/svg+xml</dc:format>
        <dc:type
           rdf:resource="http://purl.org/dc/dcmitype/StillImage" />
        <dc:title></dc:title>
      </cc:Work>
    </rdf:RDF>
  </metadata>
  <g
     inkscape:label="Katman 1"
     inkscape:groupmode="layer"
     id="layer1">
    <g
       style="fill:#000000;fill-opacity:1"
       id="g2230"
       transform="matrix(0.06546609,0,0,-0.06546609,-156.63715,311.87475)">
      <path
         inkscape:original-d="m 4617.96,3856.52 c -329.37,449.81 -822.67,544.78 -1480.91,284.38 136.45,-61.97 227.41,-155.94 273.9,-282.39 -182.43,83.97 -364.36,90.97 -546.79,20.49 477.31,-451.82 620.75,-982.1 429.33,-1591.36 578.77,-381.35 1073.57,-381.35 1484.41,0 72.47,801.18 19.49,1324.47 -159.94,1568.88 z"
         inkscape:path-effect="#path-effect932"
         clip-path="url(#clipPath924)"
         d="m 4617.96,3856.52 c -329.37,449.81 -822.67,544.78 -1480.91,284.38 136.45,-61.97 227.41,-155.94 273.9,-282.39 -182.43,83.97 -364.36,90.97 -546.79,20.49 477.31,-451.82 620.75,-982.1 429.33,-1591.36 578.77,-381.35 1073.57,-381.35 1484.41,0 72.47,801.18 19.49,1324.47 -159.94,1568.88 z"
         style="fill:#ffffff;fill-opacity:1;stroke:none;stroke-width:152.75083635;stroke-linecap:round;stroke-linejoin:round;stroke-miterlimit:10;stroke-dasharray:none;stroke-opacity:1"
         id="path360" />
      <path
         d="m 4554.49,3333.22 c -46.49,-166.43 -29.99,-309.37 49.47,-428.33 86.97,-130.44 174.94,-162.93 263.9,-96.46 89.46,66.48 175.43,49.98 258.9,-50.48 1.5,200.92 -22.99,365.36 -73.47,493.31 -50.48,127.94 -123.45,167.93 -219.41,120.45 -96.47,-47.48 -184.43,-43.98 -263.9,11.49 -5.5,-16.99 -11,-33.49 -15.49,-49.98 z"
         style="fill:#ffffff;fill-opacity:1;stroke:#ffffff;stroke-width:106.92558543;stroke-linecap:round;stroke-linejoin:round;stroke-miterlimit:10;stroke-dasharray:none;stroke-opacity:1;paint-order:normal"
         id="path372" />
    </g>
  </g>
</svg>
