<?xml version="1.0" encoding="UTF-8" standalone="no"?>
<svg
   xmlns:dc="http://purl.org/dc/elements/1.1/"
   xmlns:cc="http://creativecommons.org/ns#"
   xmlns:rdf="http://www.w3.org/1999/02/22-rdf-syntax-ns#"
   xmlns:svg="http://www.w3.org/2000/svg"
   xmlns="http://www.w3.org/2000/svg"
   xmlns:xlink="http://www.w3.org/1999/xlink"
   xmlns:sodipodi="http://sodipodi.sourceforge.net/DTD/sodipodi-0.dtd"
   xmlns:inkscape="http://www.inkscape.org/namespaces/inkscape"
   width="180mm"
   height="75mm"
   viewBox="0 0 180 75"
   version="1.1"
   id="svg802"
   inkscape:version="1.0 (4035a4fb49, 2020-05-01)"
   sodipodi:docname="berri-white.svg">
  <defs
     id="defs796">
    <rect
       x="88.81543"
       y="90.894691"
       width="138.53444"
       height="99.965263"
       id="rect2476" />
    <rect
       x="80.546806"
       y="90.009201"
       width="93.338882"
       height="55.643215"
       id="rect2469" />
    <rect
       x="92.231407"
       y="105.89611"
       width="165.16467"
       height="93.801224"
       id="rect2463" />
    <linearGradient
       inkscape:collect="always"
       id="linearGradient2441">
      <stop
         style="stop-color:#6799f3;stop-opacity:1;"
         offset="0"
         id="stop2437" />
      <stop
         style="stop-color:#77c4f7;stop-opacity:1"
         offset="1"
         id="stop2439" />
    </linearGradient>
    <clipPath
       id="clipPath472"
       clipPathUnits="userSpaceOnUse">
      <path
         id="path470"
         d="M 0,0 H 12790 V 4990 H 0 Z" />
    </clipPath>
    <clipPath
       id="clipPath478"
       clipPathUnits="userSpaceOnUse">
      <path
         id="path476"
         d="m 996.75,3917.66 c 0,-158.44 55.98,-293.88 168.43,-406.34 95.46,-95.46 206.92,-149.94 335.37,-164.43 14.49,-128.45 68.97,-240.41 164.43,-335.37 112.46,-112.45 247.9,-168.43 406.34,-168.43 158.44,0 293.88,55.98 406.34,168.43 95.46,95.46 149.94,206.92 164.43,335.37 128.45,14.49 240.41,68.97 335.37,164.43 112.45,112.46 168.43,247.9 168.43,406.34 0,158.94 -55.98,294.38 -168.43,406.34 -94.96,95.46 -206.92,149.94 -335.37,164.43 -14.49,128.45 -68.97,240.41 -164.43,335.37 -112.46,112.45 -247.9,168.43 -406.34,168.43 -158.44,0 -293.88,-55.98 -406.34,-168.43 -95.46,-94.96 -149.94,-206.92 -164.43,-335.37 C 1372.1,4473.94 1260.14,4419.46 1165.18,4324 1052.73,4212.04 996.75,4076.6 996.75,3917.66 Z m 1074.57,924.63 c 117.45,0 217.41,-41.48 300.38,-124.45 82.47,-82.46 123.95,-181.93 124.45,-298.38 v -4 c -0.5,-116.45 -41.98,-215.91 -124.45,-298.38 -65.97,-65.47 -142.94,-105.45 -230.41,-119.45 -16.49,124.95 -70.97,233.91 -163.43,326.37 -92.97,92.96 -201.42,147.44 -325.87,163.43 13.49,87.97 52.97,164.94 118.95,230.41 82.97,82.97 182.93,124.45 300.38,124.45 z m -800.18,-624.25 c 82.47,82.47 181.93,123.95 298.38,124.45 h 4 c 116.45,-0.5 215.91,-41.98 298.38,-124.45 65.97,-65.97 105.96,-142.94 119.45,-230.41 -124.95,-15.99 -233.9,-70.47 -326.37,-163.43 -92.96,-92.47 -147.44,-201.42 -163.43,-326.37 -87.47,13.49 -164.44,53.48 -230.41,119.45 -82.97,82.97 -124.45,182.93 -124.45,300.38 0,117.45 41.48,217.91 124.45,300.38 z m 499.8,-499.8 h 0.5 c 65.47,65.97 142.44,105.96 229.91,119.45 15.99,-124.95 70.47,-233.9 163.43,-326.37 92.97,-92.96 201.92,-147.44 326.37,-163.43 -13.49,-87.46 -53.48,-164.44 -119.45,-230.41 -82.97,-82.96 -182.93,-124.45 -300.38,-124.45 -117.45,0 -217.41,41.49 -300.38,124.45 -82.47,82.47 -123.95,181.93 -124.45,298.38 v 4 c 0.5,116.45 41.98,215.91 124.45,298.38 z m 499.8,-100.96 c -65.97,65.97 -105.46,142.94 -118.95,230.41 124.45,16.49 233.41,70.97 325.87,163.44 92.96,92.96 147.44,201.41 163.43,325.86 87.46,-13.49 164.44,-52.97 230.41,-118.95 82.96,-82.47 124.45,-182.93 124.45,-300.38 0,-117.45 -41.49,-217.41 -124.45,-300.38 -82.47,-82.47 -181.93,-123.95 -298.38,-124.45 h -4 c -116.45,0.5 -215.91,41.98 -298.38,124.45 z" />
    </clipPath>
    <linearGradient
       inkscape:collect="always"
       xlink:href="#linearGradient2441"
       id="linearGradient2443"
       x1="106.33299"
       y1="158.01027"
       x2="105.86571"
       y2="82.119751"
       gradientUnits="userSpaceOnUse" />
    <linearGradient
       inkscape:collect="always"
       xlink:href="#linearGradient2441"
       id="linearGradient2445"
       gradientUnits="userSpaceOnUse"
       x1="106.33299"
       y1="158.01027"
       x2="105.86571"
       y2="82.119751" />
    <linearGradient
       inkscape:collect="always"
       xlink:href="#linearGradient2441"
       id="linearGradient2447"
       gradientUnits="userSpaceOnUse"
       x1="106.33299"
       y1="158.01027"
       x2="105.86571"
       y2="82.119751" />
    <linearGradient
       inkscape:collect="always"
       xlink:href="#linearGradient2441"
       id="linearGradient2449"
       gradientUnits="userSpaceOnUse"
       x1="106.33299"
       y1="158.01027"
       x2="105.86571"
       y2="82.119751" />
    <linearGradient
       inkscape:collect="always"
       xlink:href="#linearGradient2441"
       id="linearGradient2451"
       gradientUnits="userSpaceOnUse"
       x1="106.33299"
       y1="158.01027"
       x2="105.86571"
       y2="82.119751" />
    <linearGradient
       inkscape:collect="always"
       xlink:href="#linearGradient2441"
       id="linearGradient2453"
       gradientUnits="userSpaceOnUse"
       x1="106.33299"
       y1="158.01027"
       x2="105.86571"
       y2="82.119751" />
    <linearGradient
       inkscape:collect="always"
       xlink:href="#linearGradient2441"
       id="linearGradient2455"
       gradientUnits="userSpaceOnUse"
       x1="106.33299"
       y1="158.01027"
       x2="105.86571"
       y2="82.119751" />
    <linearGradient
       inkscape:collect="always"
       xlink:href="#linearGradient2441"
       id="linearGradient2457"
       gradientUnits="userSpaceOnUse"
       x1="106.33299"
       y1="158.01027"
       x2="105.86571"
       y2="82.119751" />
    <linearGradient
       inkscape:collect="always"
       xlink:href="#linearGradient2441"
       id="linearGradient2459"
       gradientUnits="userSpaceOnUse"
       x1="106.33299"
       y1="158.01027"
       x2="105.86571"
       y2="82.119751" />
  </defs>
  <sodipodi:namedview
     id="base"
     pagecolor="#ffffff"
     bordercolor="#666666"
     borderopacity="1.0"
     inkscape:pageopacity="0.0"
     inkscape:pageshadow="2"
     inkscape:zoom="0.94"
     inkscape:cx="262.38694"
     inkscape:cy="189.95728"
     inkscape:document-units="mm"
     inkscape:current-layer="g2491"
     inkscape:document-rotation="0"
     showgrid="false"
     inkscape:pagecheckerboard="true"
     inkscape:window-width="1326"
     inkscape:window-height="743"
     inkscape:window-x="40"
     inkscape:window-y="0"
     inkscape:window-maximized="0" />
  <metadata
     id="metadata799">
    <rdf:RDF>
      <cc:Work
         rdf:about="">
        <dc:format>image/svg+xml</dc:format>
        <dc:type
           rdf:resource="http://purl.org/dc/dcmitype/StillImage" />
        <dc:title></dc:title>
      </cc:Work>
    </rdf:RDF>
  </metadata>
  <g
     inkscape:label="Katman 1"
     inkscape:groupmode="layer"
     id="layer1">
    <g
       id="g2491"
       transform="matrix(1.1243484,0,0,1.1243484,-23.4096,-4.6630652)">
      <g
         style="stroke:url(#linearGradient2443);stroke-width:5;stroke-miterlimit:10;stroke-dasharray:none;stroke-opacity:1"
         transform="matrix(0.80302816,0,0,0.80302816,-32.240763,-59.021115)"
         id="g1779">
        <path
           id="path672"
           style="fill:none;stroke:url(#linearGradient2445);stroke-width:5;stroke-linecap:round;stroke-linejoin:round;stroke-miterlimit:10;stroke-dasharray:none;stroke-opacity:1"
           d="m 88.202206,102.5646 c 0,-4.883859 1.727553,-9.027234 5.166078,-12.465759 3.438172,-3.438172 7.599186,-5.166078 12.465396,-5.166078 4.86658,0 9.02653,1.727906 12.46611,5.166078 3.43959,3.438525 5.16467,7.5819 5.16467,12.465759" />
        <path
           id="path674"
           style="fill:none;stroke:url(#linearGradient2447);stroke-width:5;stroke-linecap:round;stroke-linejoin:round;stroke-miterlimit:10;stroke-dasharray:none;stroke-opacity:1"
           d="m 88.202206,102.5646 c -4.866569,0 -9.027583,1.7279 -12.465755,5.16607 -3.438173,3.43818 -5.166078,7.5819 -5.166078,12.46576 0,4.86657 1.727905,9.02758 5.166078,12.46575 3.438172,3.43818 7.599186,5.16608 12.465755,5.16608" />
        <path
           id="path704"
           style="fill:none;stroke:url(#linearGradient2449);stroke-width:5;stroke-linecap:round;stroke-linejoin:round;stroke-miterlimit:10;stroke-dasharray:none;stroke-opacity:1"
           d="m 123.46446,137.82826 c 4.86833,0 9.02758,-1.7279 12.46717,-5.16608 3.43958,-3.43817 5.16466,-7.59918 5.16466,-12.46575 0,-4.88386 -1.72508,-9.02758 -5.16466,-12.46576 -3.43959,-3.43817 -7.59884,-5.16607 -12.46717,-5.16607" />
        <path
           id="path706"
           style="fill:none;stroke:url(#linearGradient2451);stroke-width:5;stroke-linecap:round;stroke-linejoin:round;stroke-miterlimit:10;stroke-dasharray:none;stroke-opacity:1"
           d="m 123.46446,102.5646 c 0,4.86621 -1.72508,9.02758 -5.16467,12.46575 -3.38666,3.38526 -7.45842,5.11316 -12.2368,5.16608 h -0.22931" />
        <path
           id="path708"
           style="fill:none;stroke:url(#linearGradient2453);stroke-width:5;stroke-linecap:round;stroke-linejoin:round;stroke-miterlimit:10;stroke-dasharray:none;stroke-opacity:1"
           d="m 105.83404,120.19643 h -0.22931 c -4.77837,0.0529 -8.851191,1.76318 -12.236446,5.16608 -3.438172,3.43817 -5.166078,7.5819 -5.166078,12.46575" />
        <path
           id="path710"
           style="fill:none;stroke:url(#linearGradient2455);stroke-width:5;stroke-linecap:round;stroke-linejoin:round;stroke-miterlimit:10;stroke-dasharray:none;stroke-opacity:1"
           d="m 105.83404,120.19643 v -0.22931 c -0.0529,-4.77802 -1.78082,-8.85084 -5.16608,-12.23645 -3.438525,-3.43817 -7.599537,-5.16607 -12.465754,-5.16607" />
        <path
           id="path712"
           style="fill:none;stroke:url(#linearGradient2457);stroke-width:5;stroke-linecap:round;stroke-linejoin:round;stroke-miterlimit:10;stroke-dasharray:none;stroke-opacity:1"
           d="m 123.46446,137.82826 c -4.8648,0 -9.02758,-1.7279 -12.46434,-5.16608 -3.38561,-3.38525 -5.11352,-7.45807 -5.16644,-12.23645 v -0.2293" />
        <path
           id="path714"
           style="fill:none;stroke:url(#linearGradient2459);stroke-width:5;stroke-linecap:round;stroke-linejoin:round;stroke-miterlimit:10;stroke-dasharray:none;stroke-opacity:1"
           d="m 88.202206,137.82826 c 0,4.86657 1.727553,9.02758 5.166078,12.46576 3.438172,3.43817 7.599186,5.16607 12.465396,5.16607 4.86658,0 9.02653,-1.7279 12.46611,-5.16607 3.43959,-3.43818 5.16467,-7.59919 5.16467,-12.46576" />
      </g>
      <g
         style="font-style:normal;font-weight:normal;font-size:10.5833px;line-height:1.25;font-family:sans-serif;white-space:pre;shape-inside:url(#rect2476);fill:#ffffff;fill-opacity:1;stroke:none"
         id="text2474"
         transform="matrix(3.8027121,0,0,3.8027121,-250.7548,-330.13516)"
         aria-label="Berri">
        <path
           id="path864"
           style="font-style:normal;font-variant:normal;font-weight:bold;font-stretch:normal;font-family:Inter;-inkscape-font-specification:'Inter Bold';fill:#ffffff;fill-opacity:1"
           d="m 89.485379,100.68905 v -7.696943 h 3.081785 q 0.84937,0 1.416869,0.251804 0.567499,0.251805 0.853128,0.699039 0.285629,0.443477 0.285629,1.022251 0,0.450993 -0.180397,0.792996 -0.180397,0.338244 -0.496092,0.556224 -0.311937,0.214222 -0.714072,0.30442 v 0.07517 q 0.439718,0.01879 0.823062,0.248046 0.387102,0.229255 0.627631,0.642665 0.24053,0.409652 0.24053,0.977151 0,0.612599 -0.30442,1.093658 -0.300662,0.477299 -0.890711,0.755409 -0.590049,0.27811 -1.454452,0.27811 z m 1.627333,-1.330427 h 1.32667 q 0.680248,0 0.992185,-0.259321 0.311936,-0.263079 0.311936,-0.699039 0,-0.319453 -0.154089,-0.563741 -0.154089,-0.244288 -0.439718,-0.383344 -0.28187,-0.139056 -0.672731,-0.139056 h -1.364253 z m 0,-3.145675 h 1.206406 q 0.334486,0 0.593807,-0.116507 0.263079,-0.120265 0.41341,-0.338244 0.154089,-0.21798 0.154089,-0.522401 0,-0.417168 -0.296903,-0.672731 -0.293146,-0.255562 -0.834337,-0.255562 h -1.236472 z" />
        <path
           id="path866"
           style="font-style:normal;font-variant:normal;font-weight:bold;font-stretch:normal;font-family:Inter;-inkscape-font-specification:'Inter Bold';fill:#ffffff;fill-opacity:1"
           d="m 99.076491,100.8018 q -0.890711,0 -1.533376,-0.36079 -0.638907,-0.36456 -0.984668,-1.029771 -0.345761,-0.668973 -0.345761,-1.582233 0,-0.890711 0.345761,-1.563442 0.345761,-0.672731 0.973393,-1.048559 0.63139,-0.375827 1.48076,-0.375827 0.571258,0 1.06359,0.184155 0.49609,0.180397 0.8644,0.54495 0.37207,0.364552 0.57878,0.917019 0.2067,0.548708 0.2067,1.285329 v 0.439719 h -4.874478 v -0.992185 h 3.367418 q 0,-0.345761 -0.15034,-0.612598 -0.150326,-0.266838 -0.417163,-0.417169 -0.26308,-0.154089 -0.612599,-0.154089 -0.364553,0 -0.646423,0.169122 -0.278112,0.165364 -0.43596,0.447235 -0.157848,0.278112 -0.161606,0.620115 v 0.943327 q 0,0.428443 0.157848,0.74038 0.161606,0.311937 0.454751,0.481059 0.293145,0.169122 0.695281,0.169122 0.266837,0 0.488575,-0.07516 0.221738,-0.07517 0.379586,-0.225497 0.15785,-0.150331 0.24053,-0.368311 l 1.48076,0.09772 q -0.11275,0.533674 -0.46227,0.932051 -0.34576,0.394618 -0.89447,0.616358 -0.544947,0.21798 -1.259019,0.21798 z" />
        <path
           id="path868"
           style="font-style:normal;font-variant:normal;font-weight:bold;font-stretch:normal;font-family:Inter;-inkscape-font-specification:'Inter Bold';fill:#ffffff;fill-opacity:1"
           d="m 102.77085,100.68905 v -5.772707 h 1.55217 v 1.007218 h 0.0601 q 0.15785,-0.537434 0.52992,-0.811788 0.37207,-0.278112 0.85689,-0.278112 0.12026,0 0.25932,0.01503 0.13905,0.01503 0.24428,0.04134 v 1.420628 q -0.11274,-0.03383 -0.31193,-0.06013 -0.19919,-0.02631 -0.36455,-0.02631 -0.35328,0 -0.63139,0.154089 -0.27436,0.150331 -0.43596,0.420926 -0.15785,0.270596 -0.15785,0.623874 v 3.265942 z" />
        <path
           id="path870"
           style="font-style:normal;font-variant:normal;font-weight:bold;font-stretch:normal;font-family:Inter;-inkscape-font-specification:'Inter Bold';fill:#ffffff;fill-opacity:1"
           d="m 107.09662,100.68905 v -5.772707 h 1.55217 v 1.007218 h 0.0601 q 0.15785,-0.537434 0.52992,-0.811788 0.37207,-0.278112 0.85688,-0.278112 0.12027,0 0.25932,0.01503 0.13906,0.01503 0.24429,0.04134 v 1.420628 q -0.11275,-0.03383 -0.31193,-0.06013 -0.19919,-0.02631 -0.36456,-0.02631 -0.35328,0 -0.63139,0.154089 -0.27435,0.150331 -0.43596,0.420926 -0.15784,0.270596 -0.15784,0.623874 v 3.265942 z" />
        <path
           id="path872"
           style="font-style:normal;font-variant:normal;font-weight:bold;font-stretch:normal;font-family:Inter;-inkscape-font-specification:'Inter Bold';fill:#ffffff;fill-opacity:1"
           d="m 111.42239,100.68905 v -5.772707 h 1.60102 v 5.772707 z m 0.80803,-6.516845 q -0.35704,0 -0.6126,-0.236771 -0.25556,-0.24053 -0.25556,-0.575016 0,-0.330728 0.25556,-0.5675 0.25556,-0.240529 0.60884,-0.240529 0.3608,0 0.6126,0.240529 0.25556,0.236772 0.25556,0.5675 0,0.334486 -0.25556,0.575016 -0.2518,0.236771 -0.60884,0.236771 z" />
      </g>
    </g>
  </g>
</svg>
